<?xml version="1.0" encoding="UTF-8"?><svg id="_1080_x_1080_px_Logo_Set_2" xmlns="http://www.w3.org/2000/svg" viewBox="0 0 500 500"><defs><style>.cls-1{fill:#12464d;}.cls-1,.cls-2,.cls-3{stroke-width:0px;}.cls-3{fill:#008187;}</style></defs><g id="Text-3"><path class="cls-3" d="m446.33,171.91c-3.48,11.12-9.12,21.59-17.8,32.93-4.92,6.43-10.23,12.49-15.66,18.22l-43.97,47.44c-.26.28-9.04,10.27-10.92,10.97-12.89,4.77-39.69.3-54.74-16.7-38.09-43.03-74.3-87.73-110.92-132.06-14.88-18-32.57-30.2-56.17-33.5-37.41-5.24-67.86,19.7-68.94,57.39-.43,14.62-.1,29.26-.08,44.9,0,.96-.78,1.74-1.73,1.74h-12.7c-.96,0-1.72-.78-1.73-1.72-.12-20.82-2.42-41.38.56-61.12,5.73-38.08,44.53-64.56,83.53-59.67,28.59,3.58,51.92,16.52,70,39.28,26.9,33.89,54.23,67.43,81.43,101.09.2.26.43.49.7.74,5.17,4.89,10.21,9.89,14.94,15.2l12.82,14.39c.22.28.46.52.7.77,6.68,6.41,14.08,9.84,21.84,11.24.06.01.11.02.17.01.76.08,1.38-.33,1.69-.9.2-.37.43-.72.76-.97l17.14-13.09h.04c.44,0,.89-.17,1.22-.51.62-.63,1.24-1.27,1.88-1.9,8.29-8.4,16.82-17.03,25.37-25.42,3.46-3.39,6.7-6.62,9.77-9.8,6.22-6.43,11.72-12.6,16.79-19.23.46-.6.9-1.19,1.34-1.78,6.33-8.59,10.49-16.41,13-24.49h.01c2.64-8.48,3.3-15.91,2.03-22.73-2.44-13.12-9.17-22.33-20.56-28.14-.27-.13-.53-.27-.79-.39-7.49-3.6-14.62-3.77-21.77-.52,0,0-.01,0-.02.01-4.88,2.21-8.99,5.53-12.42,10.04-.01.02-.02.03-.03.04-.27.33-.52.68-.74,1.02-1.02,1.12-2.4,1.79-3.94,1.79h-45.4c-2.74,0-5.01-2.12-5.57-5.18l-2.2-9.72-.16-.72c-.73-3.22-5.32-3.22-6.05,0l-.59,2.6-8.87,39.23c-.43,1.91-1.57,3.47-3.13,4.28-.74.38-1.56.58-2.37.58-.67,0-1.33-.13-1.97-.4-1.86-.77-3.19-2.56-3.59-4.77l-2.53-11.23-2.81-12.41c-.42-1.86-2.41-2.76-4.17-2.05-.65.26-1.35.39-2.08.37h-54.26c-3.18.01-5.68-2.86-5.68-6.52s2.5-6.52,5.68-6.52h47.53c1.45,0,2.71-1,3.02-2.42l3.34-14.8c.4-2.22,1.73-4,3.59-4.78,1.4-.59,2.98-.52,4.33.18,1.57.81,2.71,2.37,3.13,4.28l.66,2.87h-.01l.27,1.19,5.39,23.84.16.69.28-1.22,6.87-30.36,5.28-23.33c.4-2.22,1.73-4,3.59-4.78,1.4-.59,2.98-.52,4.33.18,1.56.81,2.7,2.37,3.13,4.28l.62,2.73h-.01l3.96,17.5,5.17,22.81.12.56h25.04c.89,0,1.73-.38,2.32-1.04,3.06-3.46,9.31-9.88,11.98-11.98,3.22-2.51,6.72-4.62,10.48-6.33,3.32-1.51,6.69-2.6,10.09-3.28,9.92-1.99,20.13-.46,29.98,4.58,17.08,8.72,28.03,23.67,31.68,43.21,1.96,10.44,1.09,21.34-2.66,33.32Z"/><path class="cls-1" d="m402.19,312.5c-1.72,0-3.11,1.4-3.1,3.11.04,14.83.33,28.98-.07,43.13-1.01,34.8-27.08,58.98-61.77,57.39-24.23-1.1-44.09-11.47-59.54-29.97-8.48-10.16-15.9-21.2-24.44-31.29-29.9-35.36-58.53-71.96-90.62-105.21-29.4-30.46-89.41-21.22-102.31,17.04-14.53,43.14-12.88,89.72-.37,133.59,7.38,25.9,38.98,38.53,65.37,32.9,27.78-5.92,47.71-28.67,48.48-57.22.75-27.21.19-54.46.17-81.69,0-1.2.69-2.29,1.77-2.81.01,0,.03-.01.04-.02,1.3-.62,2.85-.27,3.76.85,18.6,23.07,36.68,46.57,56.07,68.94,17.83,20.6,34.36,44.13,56.47,58.88,47.94,31.96,109.61,9.91,121.96-41.84,4.71-19.75,2.9-41.05,3.65-62.57.06-1.76-1.33-3.22-3.09-3.22h-12.39Zm-246.61,60.64c-.43,24.52-17.28,42.31-40.38,43.09-.37.01-.73.01-1.1.01-4.37.06-8.6-.51-12.59-1.61-.1-.02-.2-.06-.3-.08-16.77-4.74-29.27-19-30.06-37.82-1.2-28.47-.97-57.04-.01-85.53.59-17.77,10.43-31.31,27.28-37.11,6.04-2.09,12.18-3.4,18.21-3.69.13,0,.27,0,.4,0,13.14.67,24.99,6.28,33.71,14.99.84.84,1.66,1.71,2.44,2.61.26.31.47.66.6,1.04.89,2.62,1.41,5.41,1.54,7.87.81,16.26.29,32.58.29,48.87.02,15.79.24,31.59-.03,47.37Z"/><path class="cls-2" d="m372.37,124.7c.28-.31.52-.64.74-1.02-.27.33-.52.68-.74,1.02Z"/></g></svg>