<?xml version="1.0" encoding="UTF-8"?><svg xmlns="http://www.w3.org/2000/svg" viewBox="0 0 500 500"><defs><style>.cls-1,.cls-2{stroke-width:0px;}.cls-2{fill:#fff;}</style></defs><g id="_1080_x_1080_px_Logo_Set_2"><g id="Text-3"><rect class="cls-1" y="0" width="500" height="500" transform="translate(500 500) rotate(180)"/></g></g><g id="Layer_17"><path class="cls-2" d="m373.59,181.34c-2.12,6.78-5.56,13.15-10.85,20.07-3,3.92-6.24,7.61-9.54,11.1l-26.79,28.91c-.16.17-5.51,6.26-6.65,6.68-7.85,2.9-24.18.18-33.36-10.18-23.21-26.22-45.27-53.46-67.59-80.46-9.07-10.97-19.84-18.4-34.22-20.41-22.79-3.2-41.34,12-42.01,34.97-.26,8.91-.06,17.83-.05,27.36,0,.58-.47,1.06-1.06,1.06h-7.74c-.58,0-1.05-.47-1.06-1.05-.07-12.69-1.48-25.21.34-37.24,3.49-23.2,27.13-39.33,50.9-36.35,17.42,2.18,31.64,10.07,42.65,23.93,16.39,20.65,33.04,41.09,49.62,61.59.12.16.26.3.43.45,3.15,2.98,6.22,6.03,9.11,9.26l7.81,8.77c.14.17.28.32.43.47,4.07,3.91,8.58,6,13.31,6.85.03,0,.07.01.1,0,.46.05.84-.2,1.03-.55.12-.22.26-.44.46-.59l10.45-7.98h.03c.27,0,.54-.1.74-.31.38-.39.76-.77,1.14-1.16,5.05-5.12,10.25-10.38,15.46-15.49,2.11-2.06,4.08-4.03,5.95-5.97,3.79-3.92,7.14-7.68,10.23-11.72.28-.37.55-.72.82-1.08,3.86-5.23,6.39-10,7.92-14.92h0c1.61-5.17,2.01-9.69,1.24-13.85-1.49-8-5.59-13.61-12.52-17.15-.16-.08-.32-.16-.48-.24-4.56-2.19-8.91-2.3-13.26-.32,0,0,0,0-.01,0-2.97,1.35-5.48,3.37-7.57,6.12,0,.01-.01.02-.02.03-.16.2-.32.41-.45.62-.62.68-1.46,1.09-2.4,1.09h-27.66c-1.67,0-3.05-1.29-3.39-3.15l-1.34-5.92-.1-.44c-.44-1.96-3.24-1.96-3.69,0l-.36,1.58-5.4,23.9c-.26,1.16-.95,2.11-1.91,2.61-.45.23-.95.35-1.44.35-.41,0-.81-.08-1.2-.24-1.13-.47-1.94-1.56-2.19-2.9l-1.54-6.84-1.71-7.56c-.26-1.13-1.47-1.68-2.54-1.25-.39.16-.82.24-1.27.22h-33.06c-1.94,0-3.46-1.74-3.46-3.97s1.52-3.97,3.46-3.97h28.96c.88,0,1.65-.61,1.84-1.47l2.04-9.02c.24-1.35,1.06-2.44,2.19-2.91.85-.36,1.81-.32,2.64.11.95.49,1.65,1.44,1.91,2.61l.4,1.75h0l.16.72,3.28,14.53.09.42.17-.74,4.18-18.5,3.22-14.22c.24-1.35,1.06-2.44,2.19-2.91.85-.36,1.81-.32,2.64.11.95.49,1.65,1.44,1.91,2.61l.38,1.67h0l2.41,10.66,3.15,13.9.07.34h15.26c.54,0,1.05-.23,1.41-.63,1.86-2.11,5.67-6.02,7.3-7.3,1.96-1.53,4.1-2.82,6.38-3.86,2.02-.92,4.08-1.58,6.15-2,6.05-1.21,12.27-.28,18.27,2.79,10.41,5.31,17.08,14.42,19.3,26.33,1.19,6.36.66,13.01-1.62,20.3Z"/><path class="cls-2" d="m346.7,267c-1.05,0-1.89.85-1.89,1.9.02,9.03.2,17.66-.04,26.28-.62,21.2-16.5,35.94-37.63,34.97-14.77-.67-26.86-6.99-36.28-18.26-5.17-6.19-9.69-12.92-14.89-19.06-18.22-21.54-35.66-43.84-55.22-64.11-17.91-18.56-54.48-12.93-62.34,10.39-8.86,26.29-7.85,54.67-.22,81.4,4.5,15.78,23.75,23.48,39.83,20.05,16.93-3.61,29.07-17.47,29.54-34.87.46-16.58.12-33.18.1-49.78,0-.73.42-1.4,1.08-1.71,0,0,.02,0,.02-.01.79-.38,1.74-.16,2.29.52,11.33,14.05,22.35,28.38,34.16,42.01,10.87,12.55,20.93,26.89,34.41,35.87,29.21,19.47,66.79,6.04,74.31-25.5,2.87-12.03,1.77-25.01,2.22-38.12.04-1.07-.81-1.96-1.88-1.96h-7.55Zm-150.26,36.95c-.26,14.94-10.53,25.78-24.6,26.25-.22,0-.45,0-.67,0-2.66.03-5.24-.31-7.67-.98-.06-.01-.12-.03-.18-.05-10.22-2.89-17.83-11.58-18.31-23.05-.73-17.34-.59-34.76,0-52.12.36-10.83,6.36-19.08,16.62-22.61,3.68-1.27,7.42-2.07,11.1-2.25.08,0,.16,0,.24,0,8.01.41,15.23,3.83,20.54,9.13.51.51,1.01,1.04,1.48,1.59.16.19.29.4.37.63.54,1.59.86,3.29.94,4.79.49,9.9.18,19.85.18,29.77.01,9.62.15,19.25-.02,28.86Z"/><path class="cls-2" d="m328.53,152.57c.17-.19.32-.39.45-.62-.16.2-.32.41-.45.62Z"/><path class="cls-2" d="m59.66,305.03c-.05.01-.06-.04-.06-.04l-.21.05s-.05.01-.1.02l-.16.04c-.06-.04-.12-.03-.17-.02-.05.01-.1.02-.17-.02l-.16.03c-.06-.04-.12-.03-.12-.03l-.18-.07c-.05.01-.1.02-.17-.02-.05.01-.12-.03-.17-.02l-.18-.07s-.06-.04-.12-.03c-.06-.04-.08-.09-.13-.08-.06-.04-.12-.03-.13-.08-.05.01-.12-.03-.18-.07-.01-.05-.06-.04-.13-.08-.01-.05-.06-.04-.13-.08-.01-.05-.08-.09-.13-.08v-.05c-.06.01-.07-.04-.07-.04-.13-.08-.21-.22-.35-.36-.09-.14-.21-.22-.3-.37v-.05c-.1-.14-.19-.29-.22-.44l-.02-.1c-.07-.09-.11-.25-.14-.4-.02-.1-.06-.26-.08-.36l.04-.06c-.02-.1-.05-.21-.06-.26q.04-.06.03-.12c-.02-.1.02-.17,0-.27,0,0,.04-.06.03-.12-.01-.05.03-.12.07-.18-.01-.05-.02-.1.02-.17-.01-.05.03-.12.07-.18-.01-.05-.02-.1.03-.12.03-.12.02-.17.06-.23.05-.01.04-.06.08-.13.04-.06.07-.18.16-.25-.01-.05.04-.06.04-.06.03-.12.12-.19.16-.25h.05s21.31-25.61,21.31-25.61l-23.83,5.34c-1.77.4-3.49-.74-3.88-2.46-.4-1.77.69-3.48,2.46-3.88l33.07-7.4h.05c.05-.02.1-.03.21-.06.01.05.06.04.12.03l.16-.04c.05-.01.1-.02.17.02l.16-.03c.06.04.12.03.17.02.05-.01.12.03.12.03.05-.01.12.03.17.02l.18.07c.05-.01.1-.02.17.02.05-.01.12.03.18.07,0,0,.05-.01.12.03l.13.08c.05-.01.12.03.12.03l.19.12s.06.04.13.08l.13.08s.06.04.13.08v.05c.06-.01.07.04.07.04.06.04.13.08.14.13.06.04.08.09.13.08.01.05.08.09.09.14.06.04.07.09.09.14l.14.13q.01.05.07.09c.01.05.02.1.09.14l.03.16c.06.04.07.09.09.14l.04.16c.06.04.08.09.09.14l.04.15q.01.05.02.1v.05c.02.05.04.1.05.16l.04.16c-.04.06-.03.12-.02.17l.03.16c-.04.06-.03.12-.03.12v.22s-.05.06-.03.12c.01.05-.03.12-.02.17.01.05-.03.12-.02.17l-.08.13c.01.05-.03.12-.02.17-.04.06-.03.12-.08.13.01.05-.03.12-.07.18.01.05-.04.06-.03.12l-.08.13c-.04.06-.08.13-.08.13l-.08.13c-.04.06-.08.13-.13.14q.01.05-.04.06l-21.31,25.6,23.83-5.34c1.77-.4,3.48.69,3.88,2.46.38,1.71-.69,3.48-2.46,3.88l-33.07,7.4Z"/><path class="cls-2" d="m62,319.29c-.63-1.64.19-3.5,1.87-4.15l31.6-12.24c1.69-.65,3.55.17,4.18,1.8.65,1.69-.17,3.55-1.85,4.2l-31.6,12.24c-1.69.65-3.55-.17-4.2-1.85Z"/><path class="cls-2" d="m102.32,355.63c-9.56,5.58-20.65,2.51-26.39-7.32-5.58-9.56-2.26-21.48,7.53-27.2,9.6-5.61,21.97-2.36,27.61,7.29,2.6,4.46,3.37,9.68,2.25,14.71-.41,1.72-2.18,2.81-3.9,2.4-1.72-.41-2.83-2.1-2.42-3.82.83-3.44.28-7-1.49-10.04-3.84-6.57-12.25-8.74-18.78-4.93-6.66,3.89-8.97,11.96-5.24,18.34,3.46,5.93,9.6,8.2,15.41,6.03l-3.52-6.02c-.91-1.56-.4-3.53,1.17-4.44,1.52-.88,3.48-.37,4.39,1.19l5.21,8.91c.91,1.56.4,3.53-1.12,4.41l-.23.13c-.11.13-.3.23-.48.34Z"/><path class="cls-2" d="m143.17,371.63l-24.66,23.24c-1.32,1.24-3.38,1.14-4.59-.14-1.24-1.32-1.18-3.35.14-4.59l9.8-9.23-13.46-14.29-9.8,9.23c-1.32,1.24-3.38,1.14-4.59-.13-1.24-1.32-1.18-3.35.14-4.59l24.66-23.24c1.32-1.24,3.35-1.18,4.59.14,1.2,1.28,1.18,3.35-.14,4.59l-10.18,9.6,13.46,14.29,10.18-9.6c1.32-1.24,3.35-1.18,4.59.13,1.2,1.28,1.18,3.35-.14,4.59Z"/><path class="cls-2" d="m170.07,392.22c-1.03,1.48-3.03,1.84-4.48.84l-7.51-5.23-17.54,25.2c-1.03,1.48-3.03,1.84-4.47.84-1.48-1.03-1.84-3.03-.81-4.52l17.54-25.2-7.47-5.2c-1.44-1-1.8-3-.77-4.49,1-1.44,3-1.8,4.44-.8l20.26,14.1c1.44,1,1.8,3,.8,4.44Z"/><path class="cls-2" d="m160.66,428.4c-1.56-.8-2.19-2.73-1.37-4.34l15.37-30.2c.82-1.61,2.75-2.24,4.32-1.45,1.61.82,2.24,2.75,1.42,4.36l-15.37,30.21c-.82,1.61-2.75,2.24-4.36,1.42Z"/><path class="cls-2" d="m205.68,442.5c-.02.05-.07.03-.07.03l-.07.2s-.02.05-.03.1l-.05.15c-.07.03-.08.08-.1.13-.02.05-.03.1-.1.13l-.05.15c-.07.03-.08.08-.08.08l-.15.12c-.02.05-.03.1-.1.13-.02.05-.08.08-.1.13l-.15.12s-.07.03-.08.08c-.07.03-.12.02-.13.07-.07.03-.08.08-.13.07-.02.05-.08.08-.15.12-.05-.02-.07.03-.13.07-.05-.02-.07.03-.13.07-.05-.02-.12.02-.13.07l-.05-.02s-.07.03-.07.03c-.13.07-.3.07-.49.12-.17,0-.3.07-.47.07l-.05-.02c-.17,0-.34,0-.49-.05l-.1-.03c-.12.02-.27-.03-.42-.08-.1-.03-.25-.08-.35-.12l-.03-.07c-.1-.03-.2-.07-.25-.08q-.03-.07-.08-.08c-.1-.03-.13-.1-.24-.13,0,0-.03-.07-.08-.08s-.08-.08-.12-.15c-.05-.02-.1-.03-.13-.1-.05-.02-.08-.08-.12-.15-.05-.02-.1-.03-.08-.08-.08-.08-.13-.1-.17-.17.02-.05-.03-.07-.07-.13s-.12-.15-.13-.27c-.05-.02-.03-.07-.03-.07-.08-.08-.1-.2-.13-.27l.02-.05-10.97-31.45-7.7,23.18c-.57,1.72-2.44,2.61-4.1,2.06-1.72-.57-2.63-2.39-2.06-4.1l10.68-32.16.02-.05c.02-.05.03-.1.07-.2.05.02.07-.03.08-.08l.05-.15c.02-.05.03-.1.1-.13l.05-.15c.07-.03.08-.08.1-.13.02-.05.08-.08.08-.08.02-.05.08-.08.1-.13l.15-.12c.02-.05.03-.1.1-.13.02-.05.08-.08.15-.12,0,0,.02-.05.08-.08l.13-.07c.02-.05.08-.08.08-.08l.2-.1s.07-.03.13-.07l.13-.07s.07-.03.13-.07l.05.02c.02-.05.07-.03.07-.03.07-.03.13-.07.19-.05.07-.03.12-.02.13-.07.05.02.12-.02.17,0,.07-.03.12-.02.17,0l.19-.05q.05.02.12-.02c.05.02.1.03.17,0l.15.05c.07-.03.12-.02.17,0l.15.05c.07-.03.12-.02.17,0l.15.05q.05.02.1.03l.05.02c.05.02.1.03.15.05l.15.05c.03.07.08.08.13.1l.15.05c.03.07.08.08.08.08l.19.12s.03.07.08.08c.05.02.08.08.13.1.05.02.08.08.13.1l.07.13c.05.02.08.08.13.1.03.07.08.08.07.13.05.02.08.08.12.15.05.02.03.07.08.08l.07.13c.03.07.07.13.07.13l.07.13c.03.07.07.13.05.19q.05.02.03.07l10.97,31.45,7.7-23.18c.57-1.72,2.39-2.63,4.1-2.06,1.67.55,2.63,2.39,2.06,4.1l-10.68,32.16Z"/><path class="cls-2" d="m255.38,432.65c-1.03,11.02-9.99,18.25-21.33,17.19-11.02-1.03-18.77-10.68-17.71-21.96,1.04-11.07,10.88-19.23,22.01-18.19,5.14.48,9.83,2.9,13.26,6.74,1.16,1.34,1.02,3.41-.32,4.57-1.34,1.16-3.36,1.07-4.52-.26-2.31-2.67-5.53-4.31-9.02-4.64-7.57-.71-14.24,4.86-14.94,12.39-.72,7.68,4.49,14.26,11.85,14.95,6.83.64,12.25-3.02,13.88-9.01l-6.94-.65c-1.8-.17-3.1-1.73-2.93-3.53.16-1.75,1.73-3.04,3.53-2.88l10.28.96c1.8.17,3.1,1.73,2.93,3.48l-.03.26c.04.16.02.38,0,.59Z"/><path class="cls-2" d="m302.06,445.73c-1.41,1.02-3.4.67-4.41-.73l-5.34-7.59h-.05s-17.99,2.72-17.99,2.72c-.16.02-.26.04-.38,0l-2.56,8.72c-.35,1.24-1.41,2.1-2.56,2.27-.47.07-.91.03-1.36-.12-1.69-.5-2.65-2.24-2.15-3.93l10.35-35.51c.36-1.18,1.31-2.03,2.51-2.26h.05c1.21-.19,2.37.34,3.1,1.3l21.58,30.69c1.03,1.46.68,3.45-.79,4.42Zm-13.86-14.16l-8.35-11.87-4.01,13.73,12.36-1.86Z"/><path class="cls-2" d="m317.78,441.04c-.75.28-1.61.26-2.36-.08s-1.38-.96-1.68-1.76l-11.92-31.95c-.61-1.64.25-3.44,1.84-4.04,1.64-.61,3.42.2,4.04,1.84l10.81,28.96,14.6-5.62.05-.02c1.59-.6,3.37.22,4.02,1.79.61,1.64-.18,3.47-1.82,4.09l-17.52,6.77-.05.02Z"/><path class="cls-2" d="m343.7,411.4l5.24,9.14,13.2-7.58c1.52-.87,3.48-.34,4.36,1.18.87,1.52.32,3.44-1.21,4.31l-15.96,9.17c-1.52.87-3.41.36-4.28-1.16l-16.95-29.53c-.87-1.52-.39-3.46,1.13-4.33l15.96-9.17c1.52-.87,3.48-.34,4.36,1.18s.34,3.48-1.18,4.36l-13.2,7.58,5.38,9.37,13.2-7.58c1.52-.87,3.46-.39,4.36,1.18.87,1.52.32,3.44-1.21,4.31l-13.2,7.58Z"/><path class="cls-2" d="m253.96,52.22c-106.22,0-192.64,86.42-192.64,192.65v.1l6.73-.94c.45-102.14,83.67-185.09,185.91-185.09s185.93,83.41,185.93,185.93c0,57.09-25.87,108.25-66.49,142.37l3.89,5.5c42.34-35.36,69.32-88.52,69.32-147.87,0-106.23-86.43-192.65-192.65-192.65Z"/><path class="cls-2" d="m376.65,397.69l-7.8-11.04,2.38-2c41.49-34.85,65.28-85.8,65.28-139.78,0-100.66-81.89-182.55-182.55-182.55S71.88,143.84,71.43,244.04v2.93s-13.5,1.88-13.5,1.88v-3.99c0-108.09,87.94-196.04,196.03-196.04s196.04,87.94,196.04,196.04c0,58.19-25.71,113.04-70.54,150.47l-2.82,2.35Z"/></g></svg>