<?xml version="1.0" encoding="UTF-8"?><svg xmlns="http://www.w3.org/2000/svg" viewBox="0 0 1080 1080"><defs><style>.cls-1,.cls-2{stroke-width:0px;}.cls-2{fill:#fff;}</style></defs><g id="_1080_x_1080_px_Logo_Set_2"><g id="Text-3"><rect class="cls-1" x="-10.96" y="-10.96" width="1101.91" height="1101.91" transform="translate(1080 1080) rotate(180)"/></g></g><g id="Layer_17"><path class="cls-2" d="m833.54,376.93c-5.03,16.09-13.2,31.24-25.76,47.66-7.12,9.31-14.81,18.07-22.65,26.37l-63.62,68.66c-.37.4-13.09,14.86-15.81,15.87-18.65,6.9-57.43.43-79.22-24.17-55.12-62.27-107.52-126.96-160.51-191.1-21.53-26.05-47.13-43.7-81.28-48.48-54.14-7.59-98.19,28.51-99.77,83.05-.63,21.16-.14,42.34-.11,64.97,0,1.38-1.13,2.52-2.51,2.52h-18.38c-1.38,0-2.49-1.13-2.51-2.49-.18-30.13-3.51-59.88.8-88.45,8.3-55.1,64.44-93.42,120.88-86.34,41.37,5.18,75.14,23.91,101.3,56.84,38.93,49.04,78.48,97.58,117.84,146.28.29.37.63.71,1.01,1.08,7.48,7.07,14.78,14.31,21.63,22l18.55,20.82c.32.4.66.76,1.01,1.11,9.66,9.28,20.37,14.25,31.61,16.27.08.02.16.03.24.02,1.1.11,2-.48,2.44-1.31.28-.53.62-1.04,1.1-1.4l24.81-18.95h.06c.64,0,1.29-.24,1.77-.74.9-.92,1.8-1.83,2.72-2.75,11.99-12.16,24.34-24.65,36.71-36.79,5-4.9,9.7-9.58,14.13-14.18,9-9.31,16.96-18.23,24.3-27.83.66-.87,1.3-1.72,1.95-2.57,9.16-12.43,15.18-23.75,18.81-35.44h.02c3.83-12.27,4.78-23.02,2.94-32.9-3.54-18.99-13.26-32.32-29.75-40.73-.39-.19-.77-.39-1.14-.56-10.84-5.21-21.16-5.45-31.5-.76,0,0-.02,0-.03.02-7.06,3.2-13.01,8.01-17.98,14.54-.02.03-.03.05-.05.06-.39.48-.76.98-1.08,1.48-1.48,1.62-3.47,2.59-5.71,2.59h-65.7c-3.97,0-7.25-3.07-8.06-7.49l-3.18-14.07-.24-1.05c-1.05-4.67-7.7-4.67-8.75,0l-.85,3.76-12.83,56.77c-.63,2.77-2.27,5.02-4.53,6.19-1.08.55-2.25.84-3.42.84-.96,0-1.93-.19-2.85-.58-2.69-1.11-4.61-3.7-5.19-6.9l-3.67-16.26-4.07-17.96c-.61-2.69-3.49-4-6.04-2.96-.94.38-1.95.57-3.02.53h-12.03l-66.49.02c-4.6,0-8.22-4.15-8.22-9.45s3.62-9.44,8.22-9.44h68.78c2.1,0,3.92-1.45,4.38-3.5l4.84-21.42c.58-3.22,2.51-5.79,5.19-6.91,2.03-.85,4.31-.76,6.27.26,2.27,1.17,3.92,3.42,4.53,6.19l.95,4.15h-.02l.39,1.72,7.8,34.5.23,1,.4-1.77,9.94-43.93,7.64-33.77c.58-3.22,2.51-5.79,5.19-6.91,2.03-.85,4.31-.76,6.27.26,2.25,1.17,3.91,3.42,4.53,6.19l.9,3.96h-.02l5.72,25.32,7.48,33.01.18.8h36.23c1.28,0,2.5-.54,3.35-1.5,4.43-5,13.47-14.3,17.34-17.34,4.66-3.63,9.73-6.69,15.16-9.16,4.81-2.19,9.68-3.76,14.6-4.74,14.36-2.88,29.13-.66,43.38,6.62,24.71,12.62,40.57,34.25,45.84,62.53,2.83,15.11,1.58,30.89-3.84,48.22Z"/><path class="cls-2" d="m769.67,580.38c-2.48,0-4.5,2.03-4.49,4.51.06,21.46.48,41.94-.1,62.41-1.46,50.36-39.18,85.35-89.38,83.05-35.07-1.59-63.8-16.59-86.17-43.36-12.27-14.7-23.01-30.68-35.37-45.28-43.27-51.16-84.7-104.13-131.14-152.25-42.54-44.07-129.39-30.71-148.05,24.66-21.03,62.43-18.64,129.84-.53,193.32,10.68,37.48,56.4,55.76,94.59,47.61,40.2-8.57,69.04-41.48,70.15-82.81,1.08-39.38.28-78.81.24-118.22,0-1.73,1-3.31,2.56-4.06.02,0,.04-.02.06-.03,1.88-.89,4.13-.39,5.43,1.23,26.92,33.38,53.08,67.4,81.13,99.77,25.81,29.81,49.72,63.86,81.71,85.2,69.38,46.24,158.62,14.34,176.48-60.55,6.82-28.58,4.19-59.4,5.28-90.54.09-2.55-1.93-4.66-4.47-4.66h-17.93Zm-356.86,87.76c-.63,35.49-25,61.23-58.43,62.35-.53.02-1.06.02-1.59.02-6.32.08-12.44-.74-18.22-2.33-.14-.03-.29-.08-.43-.11-24.26-6.87-42.35-27.49-43.49-54.73-1.74-41.19-1.4-82.55-.02-123.77.85-25.71,15.1-45.31,39.47-53.7,8.75-3.02,17.62-4.93,26.35-5.34.19,0,.39,0,.58,0,19.02.97,36.16,9.09,48.78,21.69,1.22,1.22,2.4,2.48,3.53,3.78.38.44.68.95.87,1.51,1.28,3.78,2.04,7.82,2.23,11.39,1.17,23.52.42,47.14.42,70.71.03,22.85.35,45.71-.05,68.54Z"/><path class="cls-2" d="m726.51,308.61c.4-.45.76-.93,1.08-1.48-.39.48-.76.98-1.08,1.48Z"/><path class="cls-2" d="m87.95,670.69c-.12.03-.15-.1-.15-.1l-.49.11s-.12.03-.25.05l-.37.08c-.15-.1-.28-.07-.4-.04-.12.03-.25.05-.4-.04l-.37.08c-.15-.09-.27-.07-.27-.07l-.43-.16c-.12.03-.25.06-.4-.04-.12.03-.27-.07-.4-.04l-.43-.17s-.15-.09-.27-.07c-.15-.1-.18-.22-.3-.19-.15-.1-.27-.07-.3-.19-.12.03-.27-.07-.43-.16-.03-.13-.15-.1-.3-.19-.03-.12-.15-.1-.3-.19-.03-.13-.18-.22-.3-.19l-.03-.12c-.12.03-.15-.09-.15-.09-.3-.19-.51-.53-.84-.85-.21-.34-.51-.53-.71-.88l-.03-.12c-.21-.34-.41-.68-.5-1.05l-.05-.25c-.18-.22-.26-.59-.34-.96-.05-.25-.14-.62-.19-.86l.1-.15c-.06-.25-.11-.49-.14-.62q.1-.15.07-.27c-.05-.24.04-.4-.02-.64,0,0,.1-.15.07-.27-.03-.12.07-.28.16-.42-.03-.13-.05-.25.04-.4-.03-.13.07-.27.16-.43-.03-.12-.05-.25.07-.27.07-.27.04-.4.14-.55.12-.03.1-.15.19-.3.1-.15.16-.43.38-.6-.03-.12.09-.15.09-.15.07-.27.29-.45.38-.6l.12-.03,50.62-60.8-56.6,12.67c-4.19.94-8.3-1.77-9.21-5.84-.94-4.19,1.65-8.27,5.84-9.21l78.55-17.58.12-.03c.12-.03.25-.05.49-.11.03.12.15.1.27.07l.37-.08c.13-.03.25-.05.4.04l.37-.08c.15.09.27.07.4.04.12-.03.27.07.27.07.12-.03.27.07.4.04l.43.16c.12-.03.24-.05.4.04.12-.03.28.07.43.17,0,0,.12-.03.27.07l.3.19c.12-.03.27.07.27.07l.46.29s.15.1.3.19l.3.19s.15.1.3.19l.03.12c.12-.03.15.1.15.1.15.1.3.19.33.31.15.1.18.22.3.19.03.12.18.22.21.34.15.1.18.22.21.34l.33.31q.03.13.18.22c.03.12.05.24.21.34l.08.37c.15.09.18.22.2.34l.08.37c.15.09.18.22.2.34l.08.37q.03.13.05.25l.03.12c.03.12.06.25.08.37l.08.37c-.09.15-.07.27-.04.4l.08.37c-.1.15-.07.27-.07.27v.52s-.11.15-.08.28c.03.12-.07.27-.04.4.03.13-.07.28-.04.4l-.19.3c.03.12-.07.27-.04.4-.1.15-.07.27-.19.3.03.12-.07.27-.16.42.03.12-.1.15-.07.27l-.19.3c-.09.15-.19.3-.19.3l-.19.3c-.1.15-.19.3-.32.33q.03.12-.1.15l-50.62,60.8,56.6-12.67c4.19-.94,8.27,1.65,9.21,5.84.91,4.07-1.65,8.27-5.84,9.2l-78.55,17.59Z"/><path class="cls-2" d="m93.49,704.56c-1.51-3.89.44-8.3,4.45-9.85l75.06-29.08c4.01-1.55,8.42.4,9.93,4.28,1.55,4.01-.4,8.42-4.4,9.97l-75.06,29.08c-4.01,1.55-8.42-.4-9.97-4.4Z"/><path class="cls-2" d="m189.25,790.86c-22.69,13.26-49.05,5.97-62.69-17.38-13.26-22.69-5.36-51.01,17.88-64.59,22.8-13.32,52.19-5.61,65.57,17.31,6.18,10.58,8.01,22.98,5.33,34.93-.98,4.08-5.17,6.68-9.26,5.7-4.08-.98-6.72-5-5.75-9.08,1.96-8.17.67-16.63-3.53-23.84-9.11-15.6-29.1-20.76-44.59-11.71-15.82,9.24-21.31,28.4-12.45,43.56,8.22,14.08,22.79,19.47,36.61,14.32l-8.35-14.29c-2.17-3.71-.94-8.38,2.77-10.55,3.6-2.1,8.27-.88,10.43,2.83l12.37,21.17c2.17,3.71.94,8.38-2.66,10.48l-.55.32c-.26.3-.7.55-1.14.81Z"/><path class="cls-2" d="m286.28,828.87l-58.58,55.2c-3.12,2.95-8.03,2.71-10.89-.32-2.95-3.13-2.8-7.95.32-10.9l23.26-21.92-31.98-33.93-23.26,21.92c-3.13,2.95-8.04,2.71-10.9-.32-2.95-3.13-2.8-7.95.32-10.9l58.58-55.2c3.13-2.95,7.95-2.8,10.9.32,2.86,3.04,2.8,7.95-.33,10.89l-24.18,22.79,31.98,33.93,24.18-22.79c3.13-2.95,7.95-2.8,10.9.32,2.86,3.04,2.8,7.95-.32,10.9Z"/><path class="cls-2" d="m350.18,877.78c-2.46,3.53-7.21,4.38-10.63,1.99l-17.84-12.42-41.66,59.84c-2.45,3.53-7.2,4.38-10.63,2-3.53-2.45-4.38-7.2-1.92-10.73l41.66-59.85-17.74-12.34c-3.42-2.38-4.27-7.13-1.82-10.66,2.38-3.42,7.13-4.28,10.55-1.89l48.12,33.5c3.42,2.38,4.27,7.13,1.89,10.55Z"/><path class="cls-2" d="m327.81,963.69c-3.72-1.89-5.21-6.48-3.26-10.31l36.49-71.74c1.95-3.83,6.54-5.32,10.25-3.43,3.83,1.95,5.32,6.54,3.37,10.36l-36.49,71.74c-1.95,3.83-6.53,5.32-10.36,3.38Z"/><path class="cls-2" d="m434.74,997.18c-.04.12-.16.08-.16.08l-.16.48s-.04.12-.08.24l-.12.36c-.16.08-.2.2-.24.32-.04.12-.08.24-.24.32l-.12.36c-.16.08-.2.2-.2.2l-.36.28c-.04.12-.08.24-.24.32-.04.12-.2.2-.24.32l-.36.28s-.16.08-.2.2c-.16.08-.28.04-.32.16-.16.08-.2.2-.32.16-.04.12-.2.2-.36.28-.12-.04-.16.08-.32.16-.12-.04-.16.08-.32.16-.12-.04-.28.04-.32.16l-.12-.04c-.04.12-.16.08-.16.08-.32.16-.72.16-1.16.28-.4,0-.72.16-1.12.16l-.12-.04c-.4,0-.8,0-1.16-.12l-.24-.08c-.28.04-.64-.08-1-.2-.24-.08-.6-.2-.84-.28l-.08-.16c-.24-.08-.48-.16-.6-.2q-.08-.16-.2-.2c-.24-.08-.32-.24-.56-.32,0,0-.08-.16-.2-.2s-.2-.2-.28-.36c-.12-.04-.24-.08-.32-.24-.12-.04-.2-.2-.28-.36-.12-.04-.24-.08-.2-.2-.2-.2-.32-.24-.4-.4.04-.12-.08-.16-.16-.32s-.28-.36-.32-.64c-.12-.04-.08-.16-.08-.16-.2-.2-.24-.48-.32-.64l.04-.12-26.05-74.7-18.29,55.04c-1.36,4.08-5.79,6.2-9.75,4.88-4.08-1.36-6.24-5.67-4.88-9.75l25.38-76.39.04-.12c.04-.12.08-.24.16-.48.12.04.16-.08.2-.2l.12-.36c.04-.12.08-.24.24-.32l.12-.36c.16-.08.2-.2.24-.32.04-.12.2-.2.2-.2.04-.12.2-.2.24-.32l.36-.28c.04-.12.08-.24.24-.32.04-.12.2-.2.36-.28,0,0,.04-.12.2-.2l.32-.16c.04-.12.2-.2.2-.2l.48-.24s.16-.08.32-.16l.32-.16s.16-.08.32-.16l.12.04c.04-.12.16-.08.16-.08.16-.08.32-.16.44-.12.16-.08.28-.04.32-.16.12.04.28-.04.4,0,.16-.08.28-.04.4,0l.44-.12q.12.04.28-.04c.12.04.24.08.4,0l.36.12c.16-.08.28-.04.4,0l.36.12c.16-.08.28-.04.4,0l.36.12q.12.04.24.08l.12.04c.12.04.24.08.36.12l.36.12c.08.16.2.2.32.24l.36.12c.08.16.2.2.2.2l.44.28s.08.16.2.2c.12.04.2.2.32.24.12.04.2.2.32.24l.16.32c.12.04.2.2.32.24.08.16.2.2.16.32.12.04.2.2.28.36.12.04.08.16.2.2l.16.32c.08.16.16.32.16.32l.16.32c.08.16.16.32.12.44q.12.04.08.16l26.05,74.7,18.28-55.04c1.36-4.08,5.67-6.24,9.75-4.88,3.96,1.31,6.24,5.67,4.88,9.74l-25.38,76.39Z"/><path class="cls-2" d="m552.78,973.78c-2.45,26.17-23.73,43.34-50.65,40.82-26.17-2.45-44.58-25.37-42.07-52.16,2.46-26.29,25.85-45.67,52.27-43.2,12.2,1.14,23.34,6.88,31.49,16.02,2.75,3.17,2.41,8.09-.76,10.84-3.18,2.75-7.98,2.55-10.73-.62-5.5-6.35-13.13-10.24-21.43-11.02-17.99-1.68-33.82,11.55-35.49,29.42-1.71,18.24,10.66,33.86,28.15,35.5,16.23,1.52,29.1-7.17,32.97-21.41l-16.48-1.54c-4.28-.4-7.36-4.11-6.95-8.39.39-4.15,4.1-7.23,8.38-6.83l24.41,2.29c4.28.4,7.35,4.11,6.97,8.27l-.06.63c.09.39.04.89,0,1.39Z"/><path class="cls-2" d="m663.64,1004.86c-3.34,2.42-8.06,1.6-10.48-1.74l-12.68-18.02-.13.02-42.73,6.44c-.37.06-.62.09-.89,0l-6.08,20.72c-.84,2.94-3.34,4.98-6.09,5.39-1.13.17-2.16.07-3.24-.28-4.01-1.18-6.29-5.31-5.11-9.32l24.59-84.34c.85-2.81,3.11-4.81,5.96-5.37l.12-.02c2.87-.43,5.62.81,7.37,3.11l51.24,72.9c2.44,3.46,1.62,8.19-1.87,10.5Zm-32.93-33.62l-19.84-28.19-9.52,32.61,29.36-4.43Z"/><path class="cls-2" d="m700.98,993.72c-1.77.66-3.82.62-5.6-.2s-3.28-2.28-3.99-4.18l-28.32-75.88c-1.46-3.91.59-8.18,4.38-9.59,3.91-1.46,8.13.47,9.59,4.38l25.67,68.77,34.67-13.34.12-.04c3.79-1.41,8.01.52,9.55,4.26,1.46,3.91-.43,8.25-4.33,9.71l-41.61,16.07-.12.04Z"/><path class="cls-2" d="m762.53,923.32l12.45,21.7,31.34-17.99c3.62-2.08,8.27-.81,10.35,2.8,2.08,3.62.75,8.17-2.87,10.24l-37.92,21.77c-3.62,2.08-8.1.86-10.18-2.75l-40.27-70.13c-2.08-3.61-.92-8.21,2.69-10.28l37.91-21.77c3.62-2.07,8.27-.81,10.35,2.8,2.08,3.62.82,8.27-2.8,10.35l-31.34,17.99,12.77,22.25,31.34-17.99c3.62-2.08,8.21-.93,10.35,2.8,2.08,3.62.75,8.17-2.86,10.24l-31.34,17.99Z"/><path class="cls-2" d="m549.42,70.28c-252.28,0-457.52,205.24-457.52,457.54v.23l15.97-2.23c1.07-242.59,198.73-439.59,441.55-439.59s441.59,198.09,441.59,441.59c0,135.58-61.43,257.09-157.92,338.14l9.23,13.06c100.56-83.97,164.64-210.23,164.64-351.2,0-252.3-205.27-457.54-457.54-457.54Z"/><path class="cls-2" d="m840.79,890.77l-18.53-26.21,5.66-4.76c98.54-82.78,155.05-203.78,155.05-331.98,0-239.06-194.49-433.55-433.55-433.55S116.96,287.87,115.91,525.85l-.03,6.96-32.02,4.48v-9.47c0-256.72,208.85-465.58,465.56-465.58s465.58,208.86,465.58,465.58c0,138.21-61.06,268.47-167.52,357.37l-6.69,5.59Z"/></g></svg>