<svg xmlns="http://www.w3.org/2000/svg" viewBox="0 0 512 512">
  <rect width="512" height="512" rx="64" fill="#25D366"/>
  <path d="M256 80c-97.2 0-176 78.8-176 176 0 31.2 8.4 60.4 23 85.6L80 432l92.8-22.6c24.4 13.6 52.4 21.6 82.2 21.6 97.2 0 176-78.8 176-176S353.2 80 256 80z" fill="#fff"/>
  <path d="M256 120c75.1 0 136 60.9 136 136s-60.9 136-136 136c-25.2 0-48.8-6.8-69.2-18.8L140 400l28-46.4c-14.4-22.4-22.8-49.2-22.8-77.6 0-75.1 60.9-136 136-136z" fill="#25D366"/>
  <path d="M320 220l-40 24-32-32-32 32-40-24 40-40-24-32 24-32 40 24 32-32 32 32 24 32-24 32z" fill="#fff" opacity="0.8"/>
  <circle cx="256" cy="180" r="12" fill="#fff"/>
  <circle cx="220" cy="220" r="8" fill="#fff"/>
  <circle cx="292" cy="220" r="8" fill="#fff"/>
  <circle cx="256" cy="260" r="8" fill="#fff"/>
</svg>