<?xml version="1.0" encoding="UTF-8"?><svg id="_1080_x_1080_px_Logo_Set_2" xmlns="http://www.w3.org/2000/svg" viewBox="0 0 100 100"><defs><style>.cls-1,.cls-2{stroke-width:0px;}.cls-2{fill:#fff;}</style></defs><g id="Text-3"><rect class="cls-1" y="0" width="100" height="100" transform="translate(100 100) rotate(180)"/><path class="cls-2" d="m86.81,35.36c-.65,2.09-1.71,4.05-3.34,6.17-.92,1.21-1.92,2.34-2.94,3.42l-8.24,8.9c-.05.05-1.7,1.92-2.05,2.06-2.42.89-7.44.06-10.26-3.13-7.14-8.07-13.93-16.45-20.8-24.76-2.79-3.38-6.11-5.66-10.53-6.28-7.01-.98-12.72,3.69-12.93,10.76-.08,2.74-.02,5.49-.01,8.42,0,.18-.15.33-.32.33h-2.38c-.18,0-.32-.15-.32-.32-.02-3.9-.45-7.76.1-11.46,1.08-7.14,8.35-12.1,15.66-11.19,5.36.67,9.74,3.1,13.12,7.36,5.04,6.35,10.17,12.64,15.27,18.95.04.05.08.09.13.14.97.92,1.91,1.85,2.8,2.85l2.4,2.7c.04.05.09.1.13.14,1.25,1.2,2.64,1.85,4.1,2.11.01,0,.02,0,.03,0,.14.01.26-.06.32-.17.04-.07.08-.13.14-.18l3.21-2.45h0c.08,0,.17-.03.23-.1.12-.12.23-.24.35-.36,1.55-1.57,3.15-3.19,4.76-4.77.65-.64,1.26-1.24,1.83-1.84,1.17-1.21,2.2-2.36,3.15-3.61.09-.11.17-.22.25-.33,1.19-1.61,1.97-3.08,2.44-4.59h0c.5-1.59.62-2.98.38-4.26-.46-2.46-1.72-4.19-3.85-5.28-.05-.02-.1-.05-.15-.07-1.4-.67-2.74-.71-4.08-.1,0,0,0,0,0,0-.91.41-1.69,1.04-2.33,1.88,0,0,0,0,0,0-.05.06-.1.13-.14.19-.19.21-.45.34-.74.34h-8.51c-.51,0-.94-.4-1.04-.97l-.41-1.82-.03-.14c-.14-.6-1-.6-1.13,0l-.11.49-1.66,7.36c-.08.36-.29.65-.59.8-.14.07-.29.11-.44.11-.12,0-.25-.02-.37-.07-.35-.14-.6-.48-.67-.89l-.47-2.11-.53-2.33c-.08-.35-.45-.52-.78-.38-.12.05-.25.07-.39.07h-10.17c-.6,0-1.06-.54-1.06-1.22s.47-1.22,1.06-1.22h8.91c.27,0,.51-.19.57-.45l.63-2.78c.07-.42.32-.75.67-.9.26-.11.56-.1.81.03.29.15.51.44.59.8l.12.54h0l.05.22,1.01,4.47.03.13.05-.23,1.29-5.69.99-4.37c.07-.42.32-.75.67-.9.26-.11.56-.1.81.03.29.15.51.44.59.8l.12.51h0l.74,3.28.97,4.28.02.1h4.69c.17,0,.32-.07.43-.19.57-.65,1.75-1.85,2.25-2.25.6-.47,1.26-.87,1.96-1.19.62-.28,1.25-.49,1.89-.61,1.86-.37,3.77-.09,5.62.86,3.2,1.64,5.26,4.44,5.94,8.1.37,1.96.2,4-.5,6.25Z"/><path class="cls-2" d="m78.54,61.72c-.32,0-.58.26-.58.58,0,2.78.06,5.43-.01,8.09-.19,6.52-5.08,11.06-11.58,10.76-4.54-.21-8.27-2.15-11.16-5.62-1.59-1.9-2.98-3.97-4.58-5.87-5.61-6.63-10.97-13.49-16.99-19.73-5.51-5.71-16.76-3.98-19.18,3.2-2.73,8.09-2.41,16.82-.07,25.05,1.38,4.86,7.31,7.22,12.26,6.17,5.21-1.11,8.95-5.37,9.09-10.73.14-5.1.04-10.21.03-15.32,0-.22.13-.43.33-.53,0,0,0,0,0,0,.24-.12.53-.05.7.16,3.49,4.32,6.88,8.73,10.51,12.93,3.34,3.86,6.44,8.28,10.59,11.04,8.99,5.99,20.55,1.86,22.87-7.85.88-3.7.54-7.7.68-11.73.01-.33-.25-.6-.58-.6h-2.32Zm-46.24,11.37c-.08,4.6-3.24,7.93-7.57,8.08-.07,0-.14,0-.21,0-.82.01-1.61-.1-2.36-.3-.02,0-.04-.01-.06-.01-3.14-.89-5.49-3.56-5.64-7.09-.23-5.34-.18-10.7,0-16.04.11-3.33,1.96-5.87,5.11-6.96,1.13-.39,2.28-.64,3.41-.69.02,0,.05,0,.07,0,2.46.13,4.69,1.18,6.32,2.81.16.16.31.32.46.49.05.06.09.12.11.2.17.49.26,1.01.29,1.48.15,3.05.05,6.11.05,9.16,0,2.96.05,5.92,0,8.88Z"/><path class="cls-2" d="m72.95,26.51c.05-.06.1-.12.14-.19-.05.06-.1.13-.14.19Z"/></g></svg>