<?xml version="1.0" encoding="UTF-8"?><svg id="Layer_17" xmlns="http://www.w3.org/2000/svg" viewBox="0 0 100 100"><defs><style>.cls-1{fill:#12464d;}.cls-1,.cls-2,.cls-3,.cls-4{stroke-width:0px;}.cls-3{fill:#008187;}.cls-4{fill:#005f6a;}</style></defs><path class="cls-3" d="m73.17,37.13c-.4,1.27-1.04,2.47-2.03,3.76-.56.73-1.17,1.43-1.79,2.08l-5.02,5.42s-1.03,1.17-1.25,1.25c-1.47.54-4.53.03-6.25-1.91-4.35-4.92-8.49-10.02-12.67-15.09-1.7-2.06-3.72-3.45-6.42-3.83-4.27-.6-7.75,2.25-7.88,6.56-.05,1.67-.01,3.34,0,5.13,0,.11-.09.2-.2.2h-1.45c-.11,0-.2-.09-.2-.2-.01-2.38-.28-4.73.06-6.98.66-4.35,5.09-7.38,9.54-6.82,3.27.41,5.93,1.89,8,4.49,3.07,3.87,6.2,7.7,9.3,11.55.02.03.05.06.08.09.59.56,1.17,1.13,1.71,1.74l1.46,1.64s.05.06.08.09c.76.73,1.61,1.12,2.5,1.28,0,0,.01,0,.02,0,.09,0,.16-.04.19-.1.02-.04.05-.08.09-.11l1.96-1.5h0c.05,0,.1-.02.14-.06.07-.07.14-.14.21-.22.95-.96,1.92-1.95,2.9-2.9.39-.39.77-.76,1.12-1.12.71-.73,1.34-1.44,1.92-2.2.05-.07.1-.14.15-.2.72-.98,1.2-1.87,1.49-2.8h0c.3-.97.38-1.82.23-2.6-.28-1.5-1.05-2.55-2.35-3.22-.03-.02-.06-.03-.09-.04-.86-.41-1.67-.43-2.49-.06,0,0,0,0,0,0-.56.25-1.03.63-1.42,1.15,0,0,0,0,0,0-.03.04-.06.08-.09.12-.12.13-.27.2-.45.2h-5.19c-.31,0-.57-.24-.64-.59l-.25-1.11-.02-.08c-.08-.37-.61-.37-.69,0l-.07.3-1.01,4.48c-.05.22-.18.4-.36.49-.09.04-.18.07-.27.07-.08,0-.15-.02-.22-.05-.21-.09-.36-.29-.41-.54l-.29-1.28-.32-1.42c-.05-.21-.28-.32-.48-.23-.07.03-.15.04-.24.04h-6.2c-.36,0-.65-.33-.65-.75s.29-.75.65-.75h5.43c.17,0,.31-.11.35-.28l.38-1.69c.05-.25.2-.46.41-.55.16-.07.34-.06.5.02.18.09.31.27.36.49l.07.33h0l.03.14.62,2.72.02.08.03-.14.78-3.47.6-2.67c.05-.25.2-.46.41-.55.16-.07.34-.06.5.02.18.09.31.27.36.49l.07.31h0l.45,2,.59,2.61v.06h2.87c.1,0,.2-.04.26-.12.35-.39,1.06-1.13,1.37-1.37.37-.29.77-.53,1.2-.72.38-.17.76-.3,1.15-.37,1.13-.23,2.3-.05,3.42.52,1.95,1,3.2,2.7,3.62,4.94.22,1.19.12,2.44-.3,3.81Z"/><path class="cls-1" d="m68.13,53.19c-.2,0-.36.16-.35.36,0,1.69.04,3.31,0,4.93-.12,3.98-3.09,6.74-7.06,6.56-2.77-.13-5.04-1.31-6.8-3.42-.97-1.16-1.82-2.42-2.79-3.57-3.42-4.04-6.69-8.22-10.35-12.02-3.36-3.48-10.21-2.42-11.69,1.95-1.66,4.93-1.47,10.25-.04,15.26.84,2.96,4.45,4.4,7.47,3.76,3.17-.68,5.45-3.27,5.54-6.54.09-3.11.02-6.22.02-9.33,0-.14.08-.26.2-.32,0,0,0,0,0,0,.15-.07.33-.03.43.1,2.12,2.64,4.19,5.32,6.41,7.88,2.04,2.35,3.92,5.04,6.45,6.73,5.48,3.65,12.52,1.13,13.93-4.78.54-2.26.33-4.69.42-7.15,0-.2-.15-.37-.35-.37h-1.42Zm-28.17,6.93c-.05,2.8-1.97,4.83-4.61,4.92-.04,0-.08,0-.13,0-.5,0-.98-.06-1.44-.18-.01,0-.02,0-.03,0-1.92-.54-3.34-2.17-3.43-4.32-.14-3.25-.11-6.52,0-9.77.07-2.03,1.19-3.58,3.12-4.24.69-.24,1.39-.39,2.08-.42.02,0,.03,0,.05,0,1.5.08,2.85.72,3.85,1.71.1.1.19.2.28.3.03.03.05.08.07.12.1.3.16.62.18.9.09,1.86.03,3.72.03,5.58,0,1.8.03,3.61,0,5.41Z"/><path class="cls-2" d="m64.72,31.73s.06-.07.09-.12c-.03.04-.06.08-.09.12Z"/><path class="cls-1" d="m14.31,60.32s-.01,0-.01,0h-.04s0,.01-.02.01h-.03s-.02,0-.03,0c0,0-.02,0-.03,0h-.03s-.02,0-.02,0h-.03s-.02,0-.03-.02c0,0-.02,0-.03,0h-.03s-.01-.02-.02-.02c-.01,0-.01-.02-.02-.02-.01,0-.02,0-.02-.02,0,0-.02,0-.03-.01,0,0-.01,0-.02-.02,0,0-.01,0-.02-.02,0,0-.01-.02-.02-.02h0s-.01-.02-.01-.02c-.02-.02-.04-.04-.07-.07-.02-.03-.04-.04-.06-.07h0s-.03-.06-.04-.09v-.02s-.02-.05-.03-.08c0-.02-.01-.05-.02-.07h0s0-.05-.01-.06t0-.02s0-.03,0-.05c0,0,0-.01,0-.02,0,0,0-.02.01-.03,0,0,0-.02,0-.03,0,0,0-.02.01-.03,0,0,0-.02,0-.02,0-.02,0-.03.01-.04,0,0,0-.01.02-.02,0-.01.01-.03.03-.05,0,0,0-.01,0-.01,0-.02.02-.04.03-.05h0s4-4.8,4-4.8l-4.47,1c-.33.07-.65-.14-.73-.46-.07-.33.13-.65.46-.73l6.2-1.39h0s.02,0,.04-.01c0,0,.01,0,.02,0h.03s.02-.01.03,0h.03s.02,0,.03,0c0,0,.02,0,.02,0,0,0,.02,0,.03,0h.03s.02,0,.03.02c0,0,.02,0,.03.01,0,0,0,0,.02,0l.02.02s.02,0,.02,0l.04.02s.01,0,.02.02l.02.02s.01,0,.02.02h0s.01.02.01.02c.01,0,.02.02.03.02.01,0,.01.02.02.02,0,0,.01.02.02.03.01,0,.01.02.02.03l.03.02s0,0,.01.02c0,0,0,.02.02.03v.03s.02.02.02.03v.03s.02.02.02.03v.03s0,0,.01.02h0s0,.03,0,.04v.03s0,.02,0,.03v.03s0,.02,0,.02v.04s0,.01,0,.02c0,0,0,.02,0,.03,0,0,0,.02,0,.03v.02s-.02.02-.02.03c0,.01,0,.02-.02.02,0,0,0,.02-.01.03,0,0,0,.01,0,.02l-.02.02s-.02.02-.02.02v.02s-.03.02-.04.03t0,.01l-4,4.8,4.47-1c.33-.07.65.13.73.46.07.32-.13.65-.46.73l-6.2,1.39Z"/><path class="cls-1" d="m14.75,62.99c-.12-.31.04-.66.35-.78l5.93-2.3c.32-.12.66.03.78.34.12.32-.03.66-.35.79l-5.93,2.3c-.32.12-.66-.03-.79-.35Z"/><path class="cls-1" d="m22.31,69.8c-1.79,1.05-3.87.47-4.95-1.37-1.05-1.79-.42-4.03,1.41-5.1,1.8-1.05,4.12-.44,5.18,1.37.49.84.63,1.81.42,2.76-.08.32-.41.53-.73.45-.32-.08-.53-.39-.45-.72.15-.64.05-1.31-.28-1.88-.72-1.23-2.3-1.64-3.52-.92-1.25.73-1.68,2.24-.98,3.44.65,1.11,1.8,1.54,2.89,1.13l-.66-1.13c-.17-.29-.07-.66.22-.83.28-.17.65-.07.82.22l.98,1.67c.17.29.07.66-.21.83l-.04.03s-.06.04-.09.06Z"/><path class="cls-1" d="m29.97,72.81l-4.62,4.36c-.25.23-.63.21-.86-.03-.23-.25-.22-.63.03-.86l1.84-1.73-2.52-2.68-1.84,1.73c-.25.23-.63.21-.86-.03-.23-.25-.22-.63.03-.86l4.62-4.36c.25-.23.63-.22.86.03.23.24.22.63-.03.86l-1.91,1.8,2.52,2.68,1.91-1.8c.25-.23.63-.22.86.03.23.24.22.63-.03.86Z"/><path class="cls-1" d="m35.01,76.67c-.19.28-.57.35-.84.16l-1.41-.98-3.29,4.72c-.19.28-.57.35-.84.16-.28-.19-.35-.57-.15-.85l3.29-4.72-1.4-.97c-.27-.19-.34-.56-.14-.84.19-.27.56-.34.83-.15l3.8,2.64c.27.19.34.56.15.83Z"/><path class="cls-1" d="m33.25,83.45c-.29-.15-.41-.51-.26-.81l2.88-5.66c.15-.3.52-.42.81-.27.3.15.42.52.27.82l-2.88,5.66c-.15.3-.52.42-.82.27Z"/><path class="cls-1" d="m41.69,86.09s-.01,0-.01,0v.04s-.02,0-.02.02v.03s-.03.02-.03.03c0,0,0,.02-.02.03v.03s-.03.02-.03.02l-.03.02s0,.02-.02.03c0,0-.02.02-.02.03l-.03.02s-.01,0-.02.02c-.01,0-.02,0-.03.01-.01,0-.02.02-.03.01,0,0-.02.02-.03.02,0,0-.01,0-.03.01,0,0-.01,0-.03.01,0,0-.02,0-.03.01h0s-.01,0-.01,0c-.03.01-.06.01-.09.02-.03,0-.06.01-.09.01h0s-.06,0-.09-.01h-.02s-.05-.01-.08-.02c-.02,0-.05-.02-.07-.02h0s-.04-.03-.05-.03t-.02-.02s-.03-.02-.04-.03c0,0,0-.01-.02-.02s-.02-.02-.02-.03c0,0-.02,0-.03-.02,0,0-.02-.02-.02-.03,0,0-.02,0-.02-.02-.02-.02-.03-.02-.03-.03,0,0,0-.01-.01-.03s-.02-.03-.03-.05c0,0,0-.01,0-.01-.02-.02-.02-.04-.03-.05h0s-2.06-5.91-2.06-5.91l-1.44,4.35c-.11.32-.46.49-.77.39-.32-.11-.49-.45-.39-.77l2-6.03h0s0-.03.01-.05c0,0,.01,0,.02-.02v-.03s.02-.02.03-.03v-.03s.03-.02.03-.03c0,0,.02-.02.02-.02,0,0,.02-.02.02-.03l.03-.02s0-.02.02-.03c0,0,.02-.02.03-.02,0,0,0,0,.02-.02h.03s.02-.03.02-.03l.04-.02s.01,0,.03-.01h.03s.01-.02.03-.03h0s.01,0,.01,0c.01,0,.03-.01.03,0,.01,0,.02,0,.03-.01,0,0,.02,0,.03,0,.01,0,.02,0,.03,0h.03s0,0,.02-.01c0,0,.02,0,.03,0h.03s.02,0,.03,0h.03s.02,0,.03,0h.03s0,.01.02.02h0s.02,0,.03.01h.03s.02.03.03.03h.03s.02.03.02.03l.03.02s0,.01.02.02c0,0,.02.02.03.02,0,0,.02.02.03.02v.03s.03.02.04.02c0,.01.02.02.01.03,0,0,.02.02.02.03,0,0,0,.01.02.02v.03s.03.03.03.03v.03s.03.03.02.03t0,.01l2.06,5.9,1.44-4.35c.11-.32.45-.49.77-.39.31.1.49.45.39.77l-2,6.03Z"/><path class="cls-1" d="m51.01,84.25c-.19,2.07-1.87,3.42-4,3.22-2.07-.19-3.52-2-3.32-4.12.19-2.08,2.04-3.61,4.13-3.41.96.09,1.84.54,2.49,1.26.22.25.19.64-.06.86-.25.22-.63.2-.85-.05-.43-.5-1.04-.81-1.69-.87-1.42-.13-2.67.91-2.8,2.32-.13,1.44.84,2.67,2.22,2.8,1.28.12,2.3-.57,2.6-1.69l-1.3-.12c-.34-.03-.58-.32-.55-.66.03-.33.32-.57.66-.54l1.93.18c.34.03.58.32.55.65v.05s0,.07,0,.11Z"/><path class="cls-1" d="m59.76,86.7c-.26.19-.64.13-.83-.14l-1-1.42h0s-3.37.51-3.37.51c-.03,0-.05,0-.07,0l-.48,1.64c-.07.23-.26.39-.48.43-.09.01-.17,0-.26-.02-.32-.09-.5-.42-.4-.74l1.94-6.66c.07-.22.25-.38.47-.42h0c.23-.04.44.06.58.24l4.05,5.76c.19.27.13.65-.15.83Zm-2.6-2.65l-1.57-2.23-.75,2.57,2.32-.35Z"/><path class="cls-1" d="m62.71,85.82c-.14.05-.3.05-.44-.02s-.26-.18-.31-.33l-2.24-5.99c-.12-.31.05-.65.35-.76.31-.12.64.04.76.35l2.03,5.43,2.74-1.05h0c.3-.12.63.04.75.33.12.31-.03.65-.34.77l-3.29,1.27h0Z"/><path class="cls-1" d="m67.57,80.26l.98,1.71,2.47-1.42c.29-.16.65-.06.82.22.16.29.06.64-.23.81l-2.99,1.72c-.29.16-.64.07-.8-.22l-3.18-5.54c-.16-.29-.07-.65.21-.81l2.99-1.72c.29-.16.65-.06.82.22s.06.65-.22.82l-2.47,1.42,1.01,1.76,2.47-1.42c.29-.16.65-.07.82.22.16.29.06.64-.23.81l-2.47,1.42Z"/><path class="cls-4" d="m50.74,12.92c-19.92,0-36.12,16.2-36.12,36.12v.02l1.26-.18c.08-19.15,15.69-34.7,34.86-34.7s34.86,15.64,34.86,34.86c0,10.7-4.85,20.3-12.47,26.7l.73,1.03c7.94-6.63,13-16.6,13-27.73,0-19.92-16.21-36.12-36.12-36.12Z"/><path class="cls-4" d="m73.75,77.69l-1.46-2.07.45-.38c7.78-6.54,12.24-16.09,12.24-26.21,0-18.87-15.35-34.23-34.23-34.23S16.6,30.1,16.52,48.88v.55s-2.53.35-2.53.35v-.75c0-20.27,16.49-36.76,36.75-36.76s36.76,16.49,36.76,36.76c0,10.91-4.82,21.19-13.23,28.21l-.53.44Z"/></svg>