<?xml version="1.0" encoding="UTF-8"?><svg id="Layer_17" xmlns="http://www.w3.org/2000/svg" viewBox="0 0 1000 1000"><defs><style>.cls-1{stroke-width:0px;}</style></defs><path class="cls-1" d="m750.14,354.1c-4.5,14.4-11.81,27.95-23.05,42.64-6.37,8.33-13.25,16.17-20.27,23.59l-56.93,61.43c-.33.36-11.71,13.29-14.14,14.2-16.69,6.17-51.39.39-70.88-21.62-49.32-55.72-96.2-113.59-143.62-170.98-19.26-23.31-42.17-39.1-72.72-43.37-48.44-6.79-87.86,25.51-89.27,74.31-.56,18.93-.13,37.88-.1,58.13,0,1.24-1.01,2.26-2.24,2.26h-16.44c-1.24,0-2.23-1.01-2.24-2.23-.16-26.96-3.14-53.57.72-79.14,7.42-49.3,57.66-83.58,108.16-77.25,37.02,4.63,67.23,21.39,90.63,50.86,34.83,43.88,70.22,87.31,105.44,130.89.26.33.56.63.91.96,6.69,6.33,13.22,12.8,19.35,19.68l16.6,18.63c.29.36.59.68.91.99,8.65,8.3,18.23,12.75,28.28,14.56.07.01.14.03.22.01.98.1,1.79-.43,2.18-1.17.25-.48.55-.93.98-1.26l22.2-16.95h.06c.58,0,1.15-.22,1.58-.66.81-.82,1.61-1.64,2.43-2.46,10.73-10.88,21.78-22.05,32.84-32.92,4.47-4.39,8.67-8.57,12.65-12.69,8.06-8.33,15.18-16.31,21.74-24.9.59-.78,1.17-1.54,1.74-2.3,8.2-11.12,13.58-21.25,16.83-31.71h.01c3.42-10.98,4.27-20.6,2.63-29.43-3.16-16.99-11.87-28.92-26.61-36.44-.35-.17-.69-.35-1.02-.5-9.7-4.66-18.93-4.88-28.18-.68,0,0-.01,0-.03.01-6.32,2.86-11.64,7.16-16.08,13.01-.01.03-.03.04-.04.06-.35.43-.68.88-.96,1.32-1.32,1.45-3.11,2.32-5.11,2.32h-58.78c-3.55,0-6.49-2.75-7.21-6.7l-2.85-12.59-.21-.94c-.94-4.17-6.89-4.17-7.83,0l-.76,3.37-11.48,50.8c-.56,2.47-2.03,4.49-4.06,5.54-.96.49-2.01.75-3.06.75-.86,0-1.73-.17-2.55-.52-2.4-.99-4.13-3.31-4.65-6.17l-3.28-14.54-3.64-16.07c-.54-2.4-3.12-3.58-5.4-2.65-.84.34-1.75.51-2.7.48h-70.25c-4.11.01-7.35-3.7-7.35-8.44s3.24-8.44,7.35-8.44h61.54c1.88,0,3.5-1.3,3.92-3.13l4.33-19.17c.52-2.88,2.24-5.18,4.65-6.19,1.81-.76,3.86-.68,5.61.23,2.03,1.05,3.51,3.06,4.06,5.54l.85,3.71h-.01l.35,1.54,6.98,30.87.2.89.36-1.58,8.89-39.3,6.83-30.21c.52-2.88,2.24-5.18,4.65-6.19,1.81-.76,3.86-.68,5.61.23,2.01,1.05,3.5,3.06,4.06,5.54l.81,3.54h-.01l5.12,22.66,6.69,29.54.16.72h32.42c1.15,0,2.24-.49,3-1.35,3.96-4.47,12.06-12.8,15.51-15.51,4.17-3.25,8.7-5.98,13.57-8.2,4.3-1.96,8.66-3.37,13.06-4.24,12.85-2.58,26.07-.59,38.81,5.93,22.11,11.29,36.3,30.64,41.02,55.95,2.53,13.52,1.41,27.64-3.44,43.14Z"/><path class="cls-1" d="m692.99,536.13c-2.22,0-4.02,1.81-4.02,4.03.05,19.2.43,37.53-.09,55.84-1.31,45.06-35.06,76.36-79.97,74.31-31.38-1.42-57.08-14.85-77.1-38.8-10.98-13.15-20.59-27.45-31.65-40.51-38.71-45.78-75.79-93.17-117.33-136.22-38.07-39.43-115.77-27.48-132.47,22.07-18.82,55.86-16.67,116.17-.47,172.97,9.55,33.53,50.47,49.89,84.63,42.6,35.97-7.67,61.77-37.12,62.77-74.09.97-35.24.25-70.51.22-105.78,0-1.55.89-2.97,2.29-3.63.02,0,.03-.02.05-.02,1.68-.8,3.69-.34,4.86,1.1,24.08,29.87,47.49,60.3,72.59,89.27,23.09,26.67,44.48,57.14,73.11,76.23,62.08,41.37,141.92,12.83,157.9-54.18,6.1-25.57,3.75-53.15,4.72-81.01.08-2.28-1.72-4.17-4-4.17h-16.04Zm-319.3,78.52c-.56,31.75-22.37,54.78-52.28,55.79-.47.01-.95.01-1.42.01-5.65.07-11.13-.66-16.3-2.09-.13-.03-.26-.07-.39-.1-21.71-6.14-37.89-24.6-38.91-48.97-1.55-36.86-1.25-73.86-.01-110.75.76-23,13.51-40.54,35.32-48.05,7.83-2.7,15.77-4.41,23.58-4.78.17,0,.34,0,.52,0,17.02.87,32.35,8.13,43.65,19.41,1.09,1.09,2.14,2.22,3.15,3.38.34.4.61.85.78,1.35,1.15,3.39,1.82,7,2,10.19,1.05,21.05.37,42.18.37,63.27.03,20.44.32,40.9-.04,61.33Z"/><path class="cls-1" d="m654.38,292.97c.36-.4.68-.83.96-1.32-.35.43-.68.88-.96,1.32Z"/><path class="cls-1" d="m83.03,616.93c-.11.03-.13-.09-.13-.09l-.44.1s-.11.02-.22.05l-.33.08c-.14-.09-.25-.06-.36-.04-.11.02-.22.05-.36-.04l-.33.07c-.13-.08-.24-.06-.24-.06l-.38-.15c-.11.03-.22.05-.36-.04-.11.03-.25-.06-.36-.03l-.38-.15s-.13-.08-.25-.06c-.13-.09-.16-.2-.27-.17-.14-.09-.25-.06-.27-.17-.11.02-.25-.06-.38-.15-.02-.11-.14-.09-.27-.17-.03-.11-.14-.09-.27-.17-.03-.11-.16-.2-.27-.17l-.02-.11c-.11.03-.13-.08-.13-.08-.27-.17-.46-.48-.75-.76-.19-.31-.46-.48-.64-.78l-.03-.11c-.18-.3-.37-.61-.44-.94l-.05-.22c-.16-.2-.23-.53-.31-.86-.05-.22-.12-.55-.17-.77l.09-.13c-.05-.22-.1-.44-.12-.55q.09-.13.06-.25c-.05-.22.04-.35-.01-.58,0,0,.09-.13.06-.24-.03-.11.06-.25.15-.38-.02-.11-.05-.22.04-.36-.02-.11.06-.24.15-.38-.03-.11-.05-.22.06-.25.06-.24.04-.35.12-.49.11-.03.09-.14.17-.27.09-.14.15-.38.34-.54-.03-.11.08-.13.08-.13.06-.24.26-.4.34-.54l.11-.03,45.29-54.4-50.64,11.34c-3.75.84-7.42-1.58-8.24-5.22-.84-3.75,1.47-7.4,5.22-8.24l70.28-15.73.11-.03c.11-.03.22-.05.44-.1.02.11.13.09.24.06l.33-.08c.11-.02.22-.05.36.04l.33-.07c.13.08.24.06.36.04.11-.02.24.06.24.06.11-.02.25.06.36.04l.38.15c.11-.02.22-.05.35.04.11-.02.25.06.38.15,0,0,.11-.03.25.06l.27.17c.11-.03.24.06.24.06l.41.26s.13.09.27.17l.27.17s.14.09.27.17l.03.11c.11-.03.13.09.13.09.14.09.27.17.3.28.14.09.16.2.27.17.03.11.16.2.19.31.13.09.16.2.19.31l.3.28q.02.11.16.2c.03.11.05.22.19.31l.07.33c.13.08.16.2.18.31l.08.33c.13.08.16.19.18.31l.08.33q.02.11.05.22l.02.11c.03.11.05.22.07.33l.07.33c-.08.13-.06.24-.04.35l.07.33c-.09.13-.06.25-.06.25v.47s-.1.13-.07.25c.02.11-.06.24-.04.35.02.11-.06.25-.04.36l-.17.27c.02.11-.06.24-.04.36-.09.13-.06.24-.17.27.03.11-.06.24-.15.38.02.11-.09.13-.06.24l-.17.27c-.08.13-.17.27-.17.27l-.17.27c-.09.13-.17.27-.28.29q.03.11-.09.14l-45.29,54.4,50.64-11.34c3.75-.84,7.4,1.47,8.24,5.22.81,3.64-1.47,7.4-5.22,8.24l-70.28,15.73Z"/><path class="cls-1" d="m87.99,647.24c-1.35-3.48.4-7.43,3.98-8.82l67.16-26.02c3.59-1.39,7.53.35,8.88,3.83,1.39,3.59-.36,7.53-3.94,8.92l-67.16,26.02c-3.59,1.39-7.53-.36-8.92-3.94Z"/><path class="cls-1" d="m173.67,724.46c-20.31,11.86-43.88,5.34-56.09-15.55-11.86-20.31-4.79-45.64,16-57.79,20.4-11.92,46.69-5.02,58.67,15.48,5.53,9.47,7.17,20.56,4.77,31.26-.88,3.65-4.63,5.98-8.28,5.1-3.65-.88-6.02-4.47-5.14-8.13,1.75-7.31.6-14.88-3.16-21.33-8.16-13.96-26.04-18.57-39.9-10.47-14.16,8.27-19.07,25.41-11.14,38.98,7.36,12.59,20.39,17.42,32.76,12.82l-7.47-12.79c-1.94-3.32-.84-7.5,2.48-9.44,3.22-1.88,7.4-.78,9.34,2.53l11.06,18.94c1.94,3.32.84,7.5-2.38,9.38l-.49.29c-.24.27-.63.5-1.02.72Z"/><path class="cls-1" d="m260.49,758.46l-52.41,49.39c-2.8,2.64-7.19,2.42-9.75-.29-2.64-2.8-2.51-7.11.29-9.75l20.82-19.62-28.61-30.36-20.82,19.62c-2.8,2.64-7.19,2.43-9.75-.29-2.64-2.8-2.51-7.11.29-9.75l52.41-49.39c2.8-2.64,7.11-2.51,9.75.29,2.56,2.72,2.51,7.11-.29,9.75l-21.64,20.39,28.61,30.36,21.64-20.39c2.8-2.64,7.11-2.51,9.75.29,2.56,2.72,2.51,7.11-.29,9.75Z"/><path class="cls-1" d="m317.66,802.22c-2.2,3.16-6.45,3.92-9.51,1.78l-15.96-11.11-37.27,53.54c-2.2,3.16-6.45,3.92-9.51,1.79-3.16-2.2-3.92-6.44-1.72-9.6l37.27-53.55-15.87-11.04c-3.06-2.13-3.82-6.38-1.63-9.54,2.13-3.06,6.38-3.83,9.44-1.69l43.06,29.97c3.06,2.13,3.82,6.38,1.69,9.44Z"/><path class="cls-1" d="m297.64,879.1c-3.33-1.69-4.66-5.8-2.92-9.22l32.65-64.18c1.74-3.43,5.85-4.76,9.17-3.07,3.43,1.74,4.76,5.85,3.02,9.27l-32.65,64.19c-1.74,3.43-5.85,4.76-9.27,3.02Z"/><path class="cls-1" d="m393.32,909.06c-.04.11-.14.07-.14.07l-.14.43s-.04.11-.07.21l-.11.32c-.14.07-.18.18-.21.29-.04.11-.07.21-.21.29l-.11.32c-.14.07-.18.18-.18.18l-.32.25c-.04.11-.07.21-.21.29-.04.11-.18.18-.21.29l-.32.25s-.14.07-.18.18c-.14.07-.25.04-.29.14-.14.07-.18.18-.29.14-.04.11-.18.18-.32.25-.11-.04-.14.07-.29.14-.11-.04-.14.07-.29.14-.11-.04-.25.04-.29.14l-.11-.04c-.04.11-.14.07-.14.07-.29.14-.64.14-1.04.25-.36,0-.64.14-1,.15l-.11-.04c-.36,0-.72,0-1.04-.11l-.21-.07c-.25.04-.57-.07-.89-.18-.21-.07-.54-.18-.75-.25l-.07-.14c-.21-.07-.43-.14-.54-.18q-.07-.14-.18-.18c-.21-.07-.29-.22-.5-.29,0,0-.07-.14-.18-.18s-.18-.18-.25-.32c-.11-.04-.21-.07-.29-.21-.11-.04-.18-.18-.25-.32-.11-.03-.21-.07-.18-.18-.18-.18-.29-.21-.36-.36.04-.11-.07-.14-.14-.29s-.25-.32-.29-.57c-.11-.04-.07-.14-.07-.14-.18-.18-.21-.43-.29-.57l.03-.11-23.31-66.84-16.36,49.25c-1.21,3.65-5.18,5.55-8.72,4.37-3.65-1.21-5.58-5.07-4.37-8.72l22.7-68.35.04-.11c.04-.11.07-.21.14-.43.11.04.14-.07.18-.18l.11-.32c.03-.11.07-.21.21-.29l.11-.32c.14-.07.18-.18.21-.29.04-.11.18-.18.18-.18.04-.11.18-.18.21-.29l.32-.25c.04-.11.07-.21.21-.29.04-.11.18-.18.32-.25,0,0,.04-.11.18-.18l.29-.14c.04-.11.18-.18.18-.18l.43-.22s.14-.07.29-.14l.29-.14s.14-.07.29-.14l.11.04c.04-.11.14-.07.14-.07.14-.07.29-.14.39-.11.14-.07.25-.04.29-.14.11.04.25-.04.36,0,.14-.07.25-.04.36,0l.39-.11q.11.04.25-.03c.11.03.21.07.36,0l.32.11c.14-.07.25-.04.36,0l.32.11c.14-.07.25-.04.36,0l.32.11q.11.03.21.07l.11.04c.11.04.22.07.32.11l.32.11c.07.14.18.18.28.21l.32.11c.07.14.18.18.18.18l.39.25s.07.14.18.18c.11.04.18.18.28.21.11.04.18.18.29.21l.14.29c.11.04.18.18.29.21.07.14.18.18.14.29.11.04.18.18.25.32.11.03.07.14.18.18l.14.29c.07.14.14.29.14.29l.14.28c.07.14.14.29.11.39q.11.04.07.14l23.31,66.84,16.36-49.25c1.21-3.65,5.07-5.58,8.72-4.37,3.54,1.17,5.58,5.07,4.37,8.72l-22.7,68.35Z"/><path class="cls-1" d="m498.94,888.12c-2.19,23.41-21.23,38.78-45.32,36.52-23.41-2.19-39.89-22.7-37.64-46.67,2.2-23.52,23.13-40.87,46.77-38.65,10.92,1.02,20.88,6.16,28.18,14.33,2.46,2.84,2.16,7.24-.68,9.7-2.84,2.46-7.14,2.28-9.6-.56-4.92-5.68-11.74-9.16-19.17-9.86-16.09-1.51-30.26,10.34-31.76,26.32-1.53,16.32,9.54,30.3,25.18,31.76,14.52,1.36,26.03-6.42,29.5-19.15l-14.74-1.38c-3.83-.36-6.58-3.68-6.22-7.51.35-3.71,3.67-6.47,7.5-6.11l21.84,2.05c3.83.36,6.58,3.68,6.23,7.4l-.05.56c.08.35.04.8,0,1.25Z"/><path class="cls-1" d="m598.13,915.93c-2.99,2.16-7.22,1.43-9.38-1.56l-11.35-16.12-.11.02-38.23,5.77c-.33.05-.56.08-.8,0l-5.44,18.54c-.75,2.63-2.99,4.45-5.45,4.82-1.01.15-1.93.06-2.9-.25-3.59-1.06-5.63-4.75-4.57-8.34l22-75.46c.76-2.52,2.78-4.31,5.33-4.81l.11-.02c2.57-.39,5.03.73,6.59,2.78l45.85,65.23c2.18,3.1,1.45,7.33-1.67,9.4Zm-29.46-30.08l-17.75-25.22-8.52,29.18,26.27-3.96Z"/><path class="cls-1" d="m631.54,905.96c-1.59.59-3.41.55-5.01-.18s-2.93-2.04-3.57-3.74l-25.34-67.89c-1.31-3.5.53-7.32,3.92-8.58,3.49-1.31,7.28.42,8.58,3.92l22.97,61.54,31.02-11.94.11-.04c3.39-1.26,7.17.46,8.54,3.81,1.31,3.5-.38,7.38-3.88,8.69l-37.23,14.38-.11.04Z"/><path class="cls-1" d="m686.61,842.97l11.14,19.41,28.04-16.1c3.24-1.86,7.4-.73,9.26,2.5,1.86,3.24.67,7.31-2.56,9.16l-33.92,19.48c-3.24,1.86-7.25.77-9.11-2.46l-36.03-62.75c-1.86-3.23-.83-7.34,2.41-9.2l33.92-19.48c3.24-1.86,7.4-.73,9.26,2.51s.73,7.4-2.5,9.26l-28.04,16.1,11.43,19.9,28.04-16.1c3.24-1.86,7.35-.83,9.26,2.5,1.86,3.24.67,7.31-2.56,9.16l-28.04,16.1Z"/><path class="cls-1" d="m495.92,79.72c-225.72,0-409.36,183.64-409.36,409.38v.2l14.29-2c.96-217.06,177.81-393.32,395.07-393.32s395.11,177.24,395.11,395.11c0,121.31-54.97,230.02-141.29,302.55l8.26,11.68c89.97-75.13,147.31-188.1,147.31-314.23,0-225.74-183.66-409.38-409.38-409.38Z"/><path class="cls-1" d="m756.63,813.85l-16.58-23.45,5.07-4.26c88.16-74.07,138.73-182.33,138.73-297.04,0-213.9-174.02-387.92-387.92-387.92S108.99,274.41,108.05,487.34l-.03,6.23-28.65,4v-8.47c0-229.7,186.87-416.58,416.56-416.58s416.58,186.88,416.58,416.58c0,123.66-54.63,240.21-149.89,319.75l-5.98,5Z"/></svg>